<?xml version="1.0" standalone="no"?>
<!DOCTYPE svg PUBLIC "-//W3C//DTD SVG 20010904//EN"
 "http://www.w3.org/TR/2001/REC-SVG-20010904/DTD/svg10.dtd">
<svg version="1.0" xmlns="http://www.w3.org/2000/svg"
 width="400.000000pt" height="400.000000pt" viewBox="0 0 400.000000 400.000000"
 preserveAspectRatio="xMidYMid meet">
<g transform="translate(0.000000,400.000000) scale(0.100000,-0.100000)" stroke="none">
<defs>
    <linearGradient id="grad1" x1="0%" y1="0%" x2="100%" y2="0%">
      <stop offset="0%" style="stop-color:rgb(255,255,0);stop-opacity:1" />
      <stop offset="100%" style="stop-color:rgb(255,0,0);stop-opacity:1" />
    </linearGradient>
  </defs>
<path d="M2231 3088 c-79 -202 -781 -2030 -781 -2034 0 -2 49 -4 109 -4 l108
0 378 983 c208 540 386 1003 396 1030 l19 47 -110 0 c-105 0 -111 -1 -119 -22z"/>
<path d="M675 2396 l-520 -242 0 -103 0 -104 535 -248 535 -248 3 131 c1 72
-1 134 -5 138 -4 4 -185 78 -401 165 -215 87 -390 161 -386 164 3 3 182 79
397 168 l392 162 3 130 c2 120 1 131 -15 130 -10 0 -252 -110 -538 -243z"/>
<path d="M2710 2513 l0 -128 421 -164 c231 -90 416 -167 412 -171 -4 -4 -194
-81 -420 -170 l-413 -163 0 -133 0 -133 78 34 c42 20 293 131 557 248 l480
214 0 104 0 104 -545 242 c-300 133 -551 242 -557 243 -10 0 -13 -32 -13 -127z"/>
</g>
</svg>
